<?xml version="1.0" encoding="utf-8"?>
<svg viewBox="0 0 500 500" xmlns="http://www.w3.org/2000/svg" xmlns:bx="https://boxy-svg.com">
  <defs>
    <radialGradient gradientUnits="userSpaceOnUse" cx="244.071" cy="257.03" r="193.55" id="gradient-1">
      <stop offset="0" style="stop-color: rgba(85, 160, 218, 1)"/>
      <stop offset="1" style="stop-color: rgba(36, 109, 165, 1)"/>
    </radialGradient>
    <radialGradient gradientUnits="userSpaceOnUse" cx="244.071" cy="257.03" r="193.55" id="gradient-0">
      <stop offset="0" style="stop-color: rgba(52, 128, 222, 1)"/>
      <stop offset="1" style="stop-color: rgba(24, 80, 148, 1)"/>
    </radialGradient>
  </defs>
  <rect x="50.521" y="162.478" width="387.1" height="189.104" style="paint-order: stroke; stroke: url('#gradient-0'); fill: url('#gradient-1'); stroke-width: 12px;"/>
  <rect x="363.057" y="200" width="21.646" height="128.53" style="stroke-width: 4px; stroke: rgb(41, 68, 123); fill: rgb(80, 166, 84);"/>
  <text style="white-space: pre; fill: rgb(51, 51, 51); font-family: Arial, sans-serif; font-size: 23.1px; transform-origin: -246.284px -95.5738px;" x="-252.709" y="-87.555" transform="matrix(-1, 0, 0, -1, 492.568481445313, 191.147567749023)">?</text>
  <path d="M 246.284 47.12 Q 248.462 45.428 250.64 47.12 L 264.436 57.837 Q 266.615 59.53 265.783 62.268 L 260.513 79.608 Q 259.681 82.346 256.988 82.346 L 239.936 82.346 Q 237.243 82.346 236.411 79.608 L 231.141 62.268 Q 230.309 59.53 232.488 57.837 Z" style="stroke: rgb(0, 0, 0); fill: rgb(32, 23, 23); transform-origin: 248.462px 63.575px;" transform="matrix(0.687795102596, 0.725904881954, -0.508767008781, 0.916965007782, 0.003346745299, 3.096980193545)" bx:shape="n-gon 248.462 65.836 19.087 20.408 5 0.12 1@cead7857"/>
  <path style="fill: rgb(216, 216, 216); stroke: rgb(0, 0, 0);" d="M 51.68 156.853 L 244.477 100 L 85.151 157.511"/>
  <path style="fill: rgb(216, 216, 216); stroke: rgb(0, 0, 0);" d="M 437.283 156.148 L 244.066 100 L 412.687 156.773"/>
  <rect x="313.698" y="200" width="21.646" height="128.53" style="stroke-width: 4px; stroke: rgb(41, 68, 123); fill: rgb(80, 166, 84);"/>
  <rect x="266.994" y="200" width="21.646" height="128.53" style="stroke-width: 4px; stroke: rgb(41, 68, 123); fill: rgb(80, 166, 84);"/>
  <rect x="264.033" y="193.167" width="21.646" height="128.53" style="stroke-width: 4px; stroke: rgb(41, 68, 123); fill: rgb(80, 166, 84);" transform="matrix(1, 0, 0, 1, -46.07211685180664, 6.8329925537109375)"/>
  <rect x="168.597" y="200" width="21.646" height="128.53" style="stroke-width: 4px; stroke: rgb(41, 68, 123); fill: rgb(80, 166, 84);"/>
  <rect x="120.313" y="230.934" width="21.646" height="97.596" style="stroke-width: 4px; stroke: rgb(41, 68, 123); fill: rgb(80, 166, 84);"/>
  <path style="stroke: rgb(0, 0, 0); fill: rgb(150, 231, 255);" transform="matrix(0.8237230181694031, 0, 0, 0.8384880423545837, -49.14881896972656, -52.855690002441406)" d="M 163.744 280.434 L 170.211 280.434 L 171.576 290.311 A 17.179 17.179 0 0 1 175.43 291.907 L 183.38 285.888 L 187.952 290.461 L 181.933 298.41 A 17.179 17.179 0 0 1 183.53 302.265 L 193.407 303.629 L 193.407 310.096 L 183.53 311.461 A 17.179 17.179 0 0 1 181.933 315.316 L 187.952 323.265 L 183.38 327.837 L 175.43 321.818 A 17.179 17.179 0 0 1 171.576 323.415 L 170.211 333.292 L 163.744 333.292 L 162.38 323.415 A 17.179 17.179 0 0 1 158.525 321.818 L 150.576 327.837 L 146.003 323.265 L 152.022 315.316 A 17.179 17.179 0 0 1 150.426 311.461 L 140.549 310.096 L 140.549 303.629 L 150.426 302.265 A 17.179 17.179 0 0 1 152.022 298.41 L 146.003 290.461 L 150.576 285.888 L 158.525 291.907 A 17.179 17.179 0 0 1 162.38 290.311 Z M 166.978 298.934 A 7.929 7.929 0 0 0 166.978 314.792 A 7.929 7.929 0 0 0 166.978 298.934" bx:shape="cog 166.978 306.863 7.929 17.179 26.429 0.38 8 1@6657abe0"/>
  <path style="stroke: rgb(0, 0, 0);" transform="matrix(0.8237230181694031, 0, 0, 0.7654439806938171, -59.470306396484375, -35.48107147216797)" d="M 231.898 286.768 L 242.576 286.768 L 244.829 303.077 A 28.366 28.366 0 0 1 251.194 305.713 L 264.319 295.775 L 271.87 303.325 L 261.931 316.451 A 28.366 28.366 0 0 1 264.567 322.815 L 280.876 325.069 L 280.876 335.747 L 264.567 338 A 28.366 28.366 0 0 1 261.931 344.365 L 271.87 357.49 L 264.319 365.041 L 251.194 355.102 A 28.366 28.366 0 0 1 244.829 357.738 L 242.576 374.047 L 231.898 374.047 L 229.644 357.738 A 28.366 28.366 0 0 1 223.28 355.102 L 210.154 365.041 L 202.604 357.49 L 212.542 344.365 A 28.366 28.366 0 0 1 209.906 338 L 193.597 335.747 L 193.597 325.069 L 209.906 322.815 A 28.366 28.366 0 0 1 212.542 316.451 L 202.604 303.325 L 210.154 295.775 L 223.28 305.713 A 28.366 28.366 0 0 1 229.644 303.077 Z M 237.237 317.316 A 13.092 13.092 0 0 0 237.237 343.5 A 13.092 13.092 0 0 0 237.237 317.316" bx:shape="cog 237.237 330.408 13.092 28.366 43.639 0.38 8 1@cbcc49a5"/>
  <g style="" transform="matrix(1.267591953277588, 0, 0, 1.1102429628372192, -30.578927993774414, -17.569017410278317)">
    <rect x="91.227" y="254.712" width="32.257" height="45.288" style="fill: rgb(216, 216, 216); stroke: rgb(0, 0, 0);"/>
    <ellipse style="fill: rgb(216, 216, 216); stroke: rgb(0, 0, 0);" cx="107.47" cy="255.843" rx="16.674" ry="4.916"/>
    <path style="fill: rgb(216, 216, 216); stroke: rgb(0, 0, 0);" d="M 91.328 263.549 C 92.435 269.326 124.308 269.191 123.201 263.414"/>
    <path style="fill: rgb(216, 216, 216); stroke: rgb(0, 0, 0);" d="M 91.313 273.674 C 92.42 279.451 124.293 279.316 123.186 273.539"/>
    <path style="fill: rgb(216, 216, 216); stroke: rgb(0, 0, 0);" d="M 91.12 281.977 C 92.227 287.754 124.1 287.619 122.993 281.842"/>
    <path style="fill: rgb(216, 216, 216); stroke: rgb(0, 0, 0);" d="M 91.096 288.598 C 92.223 294.375 124.684 294.24 123.557 288.463"/>
    <path style="fill: rgb(216, 216, 216); stroke: rgb(0, 0, 0);" d="M 91.022 299.139 C 92.149 304.916 124.61 304.781 123.483 299.004"/>
  </g>
</svg>